Cover:
=================================================================================== 
http://img511.imageshack.us/img511/5011/cover20michael20cimino2.jpg
===================================================================================

Storyline:
===================================================================================
Michael, Steven and Nick are young factory workers from Pennsylvania who enlist into the Army to fight in Vietnam. Before they go, Steven marries the pregnant Angela and their wedding-party is also the men's farewell party. After some time and many horrors the three friends fall in the hands of the Vietcong and are brought to a prison camp in which they are forced to play Russian roulette against each other. Michael makes it possible for them to escape, but they soon get separated again.
===================================================================================

Cast:
===================================================================================
Robert De Niro 	 ...Michael
John Cazale 	 ...Stan
John Savage 	 ...Steven
Christopher Walken 	...Nick
Meryl Streep 	 ...Linda
George Dzundza 	 ...John
Chuck Aspegren 	 ...Axel
Shirley Stoler 	 ...Steven's Mother
Rutanya Alda 	 ...Angela
Pierre Segui 	 ...Julien
Mady Kaplan 	 ...Axel's Girl
Amy Wright 	 ...Bridesmaid
Mary Ann Haenel  ...Stan's Girl
Richard Kuss 	 ...Linda's Father
Joe Grifasi 	 ...Bandleader
===================================================================================

Video Specs:
===================================================================================
Format                           : MPEG-4 Visual
Format profile                   : Advanced Simple@L5
Format settings, BVOP            : 1
Format settings, QPel            : No
Format settings, GMC             : No warppoints
Format settings, Matrix          : Custom
Codec ID                         : XVID
Codec ID/Hint                    : XviD
Duration                         : 3h 3mn
Bit rate                         : 398 Kbps
Width                            : 448 pixels
Height                           : 192 pixels
Display aspect ratio             : 2.35:1
Frame rate                       : 23.976 fps
Color space                      : YUV
Chroma subsampling               : 4:2:0
Bit depth                        : 8 bits
Scan type                        : Progressive
Compression mode                 : Lossy
Bits/(Pixel*Frame)               : 0.193
Stream size                      : 523 MiB (75%)
===================================================================================

Audio Specs:
===================================================================================
Format                           : MPEG Audio
Format version                   : Version 1
Format profile                   : Layer 3
Mode                             : Joint stereo
Mode extension                   : MS Stereo
Codec ID                         : 55
Codec ID/Hint                    : MP3
Duration                         : 3h 3mn
Bit rate mode                    : Constant
Bit rate                         : 128 Kbps
Channel(s)                       : 2 channels
Sampling rate                    : 48.0 KHz
Compression mode                 : Lossy
Stream size                      : 168 MiB (24%)
Alignment                        : Aligned on interleaves
Interleave, duration             : 83 ms (2.00 video frames)
Interleave, preload duration     : 504 ms
Writing library                  : LAME3.97 
Encoding settings                : -m j -V 4 -q 2 -lowpass 17 -b 128
===================================================================================

Screens:
=================================================================================== 
http://img809.imageshack.us/img809/8522/vlcsnap2011020910h13m35.png 
http://img109.imageshack.us/img109/287/vlcsnap2011020910h14m40.png 
http://img194.imageshack.us/img194/6739/vlcsnap2011020910h14m46.png 
http://img651.imageshack.us/img651/994/vlcsnap2011020910h14m52.png 
http://img191.imageshack.us/img191/1175/vlcsnap2011020910h15m04.png 
http://img193.imageshack.us/img193/7937/vlcsnap2011020910h15m15.png 
http://img29.imageshack.us/img29/2821/vlcsnap2011020910h15m22.png
===================================================================================
Enjoy!!!
